<?xml version="1.0" encoding="utf-8"?>
<!-- Generator: Adobe Illustrator 24.0.3, SVG Export Plug-In . SVG Version: 6.00 Build 0)  -->
<svg version="1.1" id="圖層_1" xmlns="http://www.w3.org/2000/svg" xmlns:xlink="http://www.w3.org/1999/xlink" x="0px" y="0px"
	 viewBox="0 0 28 28" style="enable-background:new 0 0 28 28;" xml:space="preserve">
<style type="text/css">
	.st0{fill:none;}
	.st1{fill:none;stroke:#000000;stroke-width:2.9167;stroke-linecap:round;stroke-linejoin:round;}
</style>
<rect y="0" class="st0" width="28" height="28"/>
<g>
	<path class="st1" d="M10.5,25.7c0.6,0,1.2-0.5,1.2-1.2c0-0.6-0.5-1.2-1.2-1.2c-0.6,0-1.2,0.5-1.2,1.2C9.3,25.1,9.9,25.7,10.5,25.7z
		"/>
	<path class="st1" d="M23.3,25.7c0.6,0,1.2-0.5,1.2-1.2c0-0.6-0.5-1.2-1.2-1.2c-0.6,0-1.2,0.5-1.2,1.2
		C22.2,25.1,22.7,25.7,23.3,25.7z"/>
	<path class="st1" d="M1.2,1.2h4.7L9,16.8c0.1,0.5,0.4,1,0.8,1.4c0.4,0.3,1,0.5,1.5,0.5h11.3c0.5,0,1.1-0.2,1.5-0.5
		c0.4-0.3,0.7-0.8,0.8-1.4L26.8,7H7"/>
</g>
</svg>
